<svg width="16" height="16" viewBox="0 0 16 16" fill="none" xmlns="http://www.w3.org/2000/svg">
<path d="M7.32812 2.32812C7.51562 2.32812 7.67188 2.39583 7.79688 2.53125C7.93229 2.65625 8 2.8125 8 3C8 3.1875 7.93229 3.34896 7.79688 3.48438C7.67188 3.60938 7.51562 3.67188 7.32812 3.67188H2.67188C2.57812 3.67188 2.48958 3.6875 2.40625 3.71875C2.32292 3.75 2.25521 3.79688 2.20312 3.85938C2.14062 3.92188 2.08854 3.99479 2.04688 4.07812C2.01562 4.16146 2 4.24479 2 4.32812V13.6719C2 13.7552 2.01562 13.8385 2.04688 13.9219C2.08854 14.0052 2.14062 14.0781 2.20312 14.1406C2.25521 14.2031 2.32292 14.25 2.40625 14.2812C2.48958 14.3125 2.57812 14.3281 2.67188 14.3281H12C12.0938 14.3281 12.1771 14.3125 12.25 14.2812C12.3333 14.25 12.4062 14.2031 12.4688 14.1406C12.5312 14.0781 12.5781 14.0052 12.6094 13.9219C12.651 13.8385 12.6719 13.7552 12.6719 13.6719V9C12.6719 8.8125 12.7344 8.65625 12.8594 8.53125C12.9948 8.39583 13.151 8.32812 13.3281 8.32812C13.5156 8.32812 13.6719 8.39583 13.7969 8.53125C13.9323 8.65625 14 8.8125 14 9V13.6719C14 13.9427 13.9479 14.2031 13.8438 14.4531C13.7396 14.6927 13.5938 14.901 13.4062 15.0781C13.2292 15.2656 13.0156 15.4115 12.7656 15.5156C12.526 15.6198 12.2708 15.6719 12 15.6719H2.67188C2.39062 15.6719 2.13021 15.6146 1.89062 15.5C1.65104 15.3958 1.4375 15.2552 1.25 15.0781C1.07292 14.901 0.932292 14.6927 0.828125 14.4531C0.723958 14.2031 0.671875 13.9427 0.671875 13.6719V4.32812C0.671875 4.05729 0.723958 3.80208 0.828125 3.5625C0.932292 3.3125 1.07292 3.09896 1.25 2.92188C1.42708 2.73438 1.63542 2.58854 1.875 2.48438C2.125 2.38021 2.39062 2.32812 2.67188 2.32812H7.32812ZM11.8594 1.53125C12.0677 1.32292 12.2969 1.17188 12.5469 1.07812C12.8073 0.973958 13.0677 0.921875 13.3281 0.921875C13.599 0.921875 13.8594 0.973958 14.1094 1.07812C14.3698 1.17188 14.6042 1.32292 14.8125 1.53125C15.0104 1.72917 15.1615 1.95833 15.2656 2.21875C15.3698 2.47917 15.4219 2.73958 15.4219 3C15.4219 3.27083 15.3698 3.53646 15.2656 3.79688C15.1615 4.04688 15.0104 4.27083 14.8125 4.46875L8.46875 10.8125C8.42708 10.8542 8.38021 10.8906 8.32812 10.9219C8.27604 10.9427 8.21875 10.9635 8.15625 10.9844L5.5 11.6406C5.32292 11.6927 5.15104 11.6719 4.98438 11.5781C4.82812 11.4844 4.72917 11.3438 4.6875 11.1562C4.67708 11.1042 4.67188 11.0521 4.67188 11C4.67188 10.9375 4.67708 10.8854 4.6875 10.8438L5.35938 8.17188C5.36979 8.10938 5.39062 8.05208 5.42188 8C5.45312 7.94792 5.48958 7.90104 5.53125 7.85938L11.8594 1.53125ZM12.7969 2.46875L6.60938 8.67188L6.25 10.0781L7.65625 9.73438L13.8594 3.53125C13.9323 3.45833 13.9844 3.375 14.0156 3.28125C14.0573 3.1875 14.0781 3.09375 14.0781 3C14.0781 2.90625 14.0573 2.8125 14.0156 2.71875C13.9844 2.625 13.9323 2.54167 13.8594 2.46875C13.7865 2.39583 13.7031 2.34375 13.6094 2.3125C13.526 2.27083 13.4323 2.25 13.3281 2.25C13.2344 2.25 13.1406 2.27083 13.0469 2.3125C12.9635 2.34375 12.8802 2.39583 12.7969 2.46875Z" fill="#111111"/>
</svg>
